<svg xmlns="http://www.w3.org/2000/svg" viewBox="0 0 163.65 246.04"><defs><style>.cls-1{fill:#eb6e4b;}.cls-2{fill:none;}.cls-2,.cls-5{stroke:#000;stroke-linecap:round;stroke-linejoin:round;}.cls-3,.cls-5{fill:#fff;}.cls-4{fill:#faad94;}.cls-6{fill:#223037;}</style></defs><title>3486815</title><g id="Objects"><path class="cls-1" d="M186.07,356.12s-.41-52.87,65-52.87,65.57,52.87,65.57,52.87Z" transform="translate(-168.44 -110.58)"/><path class="cls-2" d="M186.07,356.12s-.41-52.87,65-52.87,65.57,52.87,65.57,52.87Z" transform="translate(-168.44 -110.58)"/><path class="cls-3" d="M268.3,304.67V273.9H234v30.75q-3.36.59-6.83,1.45s7,14.22,24.21,14.22A26.26,26.26,0,0,0,275,306.1,67.2,67.2,0,0,0,268.3,304.67Z" transform="translate(-168.44 -110.58)"/><path class="cls-4" d="M233.86,273.9v18.93c7.54,3.23,19.63,5.9,34.35.28V273.9Z" transform="translate(-168.44 -110.58)"/><path class="cls-2" d="M268.3,304.67V273.9H234v30.75q-3.36.59-6.83,1.45s7,14.22,24.21,14.22A26.26,26.26,0,0,0,275,306.1,67.2,67.2,0,0,0,268.3,304.67Z" transform="translate(-168.44 -110.58)"/><path class="cls-5" d="M330.75,223.53a23.56,23.56,0,0,1,.14,11.94c-1.49,6.71-5.73,13.56-12.44,15.07-12.83,2.87-18.24-10.69-16.64-21.07a22.11,22.11,0,0,1,2-6.91C309.71,211.21,326.59,210,330.75,223.53Z" transform="translate(-168.44 -110.58)"/><path class="cls-5" d="M323,218.71s-12.09,7.22-6.38,28.25" transform="translate(-168.44 -110.58)"/><path class="cls-5" d="M316.56,227.39s8.05-.14,6.41,9.38" transform="translate(-168.44 -110.58)"/><path class="cls-5" d="M169.77,223.53a23.56,23.56,0,0,0-.13,11.94c1.48,6.71,5.72,13.56,12.44,15.07,12.82,2.87,18.23-10.69,16.64-21.07a22.4,22.4,0,0,0-2-6.91C190.82,211.21,173.94,210,169.77,223.53Z" transform="translate(-168.44 -110.58)"/><path class="cls-5" d="M177.56,218.71s12.09,7.22,6.37,28.25" transform="translate(-168.44 -110.58)"/><path class="cls-5" d="M184,227.39s-8.05-.14-6.4,9.38" transform="translate(-168.44 -110.58)"/><path class="cls-5" d="M189.59,205.72c0,2.36,0,4.7-.18,7.05-.81,13.95-.73,72.46,57.56,75.07,66.2,3,64.72-59.18,66.2-78s-1.88-75.44-62-75.81C194.46,133.64,189.51,181.18,189.59,205.72Z" transform="translate(-168.44 -110.58)"/><path class="cls-2" d="M251.14,191.2c-7.8,12.31-15.35,25.85-14.74,40.41.12,2.72.62,5.63,2.53,7.56a7.85,7.85,0,0,0,6.88,1.94,12.74,12.74,0,0,0,6.43-3.51" transform="translate(-168.44 -110.58)"/><path class="cls-2" d="M240.9,250.4c2.88,1.61,6.46.9,9.61-.07a72,72,0,0,0,22.36-11.46" transform="translate(-168.44 -110.58)"/><path class="cls-2" d="M265.21,206.3a10.83,10.83,0,0,1,3-8,7.61,7.61,0,0,1,6.93-2.51,7.49,7.49,0,0,1,4.75,4,17.51,17.51,0,0,1,1.62,6.14" transform="translate(-168.44 -110.58)"/><path class="cls-2" d="M264.28,211.61A10.94,10.94,0,0,0,281.15,213" transform="translate(-168.44 -110.58)"/><path d="M278.53,201.12c0,3.08-1.69,5.59-3.78,5.59S271,204.2,271,201.12s1.69-5.6,3.77-5.6S278.53,198,278.53,201.12Z" transform="translate(-168.44 -110.58)"/><path class="cls-2" d="M217.37,206.3a10.91,10.91,0,0,1,2.95-8,7.64,7.64,0,0,1,6.94-2.51,7.5,7.5,0,0,1,4.74,4,17.29,17.29,0,0,1,1.62,6.14" transform="translate(-168.44 -110.58)"/><path class="cls-2" d="M216.45,211.61A10.94,10.94,0,0,0,233.32,213" transform="translate(-168.44 -110.58)"/><path d="M230.69,201.12c0,3.08-1.69,5.59-3.77,5.59s-3.78-2.51-3.78-5.59,1.69-5.6,3.78-5.6S230.69,198,230.69,201.12Z" transform="translate(-168.44 -110.58)"/><path class="cls-6" d="M311.05,141.63c.56-2.68-.12-6-2.66-7.06-3.1-1.23-6.12,1.83-8,4.58.49-2.6,1-5.34.11-7.84s-3.55-4.59-6.08-3.8c-2.27.71-3.37,3.27-3.8,5.61-.28-5.28-5.44-8.77-10-11.39-9.33-5.32-19.15-10.78-29.89-11.13-3.14-.11-6.51.33-8.86,2.42s-3,6.26-.57,8.27c-7.07-6.84-17.68-9.52-27.35-7.7s-18.3,7.88-24.06,15.87c-1.21,1.68-2.34,3.6-2.21,5.67s2.11,4.11,4.1,3.54a33.54,33.54,0,0,0-12.47,12.75c-2.78,5.35-3.62,11.84-1.51,17.48,1.33,3.55,4,6.78,7.54,8s8.08.12,10-3.13c-1.89,2.52-.67,6.39,1.8,8.35s5.77,2.47,8.91,2.75c7.08.63,14.37.39,21-2s12.71-7.27,15.38-13.85a10.17,10.17,0,0,0,6.91,5.87,20.24,20.24,0,0,0,9.32,0,41.39,41.39,0,0,0,16.91-7.45c-1.34,2-.35,4.9,1.56,6.36s4.43,1.8,6.83,1.9c4.11.17,8.73-.47,11.29-3.69a6.2,6.2,0,1,0,11.64,4.1,3.34,3.34,0,0,0,2.94,3.1,5.59,5.59,0,0,0,4.28-1.48c3.91-3.33,3.71-10.33-.39-13.43-.61-.47-1.32-.91-1.55-1.64-.3-1,.48-2,1-2.9,2-3.55-.38-6.13-2.31-8.85C308.44,147.48,310.23,145.58,311.05,141.63Z" transform="translate(-168.44 -110.58)"/><path class="cls-6" d="M297.09,186.19a4.83,4.83,0,0,0,3.18,4.12,14.18,14.18,0,0,0,5.43.74l-3,4.69c-1.74,2.75-3.56,5.79-3.2,9s4.17,6.13,6.91,4.36l-2.81,4.45a17.56,17.56,0,0,0-2.67,5.59,6,6,0,0,0,1.55,5.74c2.22,1.94,5.9,1.08,7.94-1.05s2.81-5.15,3.42-8a7.47,7.47,0,0,0,2-14,10,10,0,0,0-.4-17.14c2.36-1.48,2.8-5,1.43-7.42s-4.08-3.82-6.81-4.35a6.62,6.62,0,0,0-3.13,0c-2.75.82-4.06,3.42-5.37,5.64S297.07,183.32,297.09,186.19Z" transform="translate(-168.44 -110.58)"/><path class="cls-6" d="M199.38,171.19c3.66,3,2.45,5.32-.32,8.16.72,1.65,1.84,3.14,2.27,4.94a5.45,5.45,0,0,1-.28,3.86c-1.22,2.29-4.28,2.66-6.87,2.76a9.84,9.84,0,0,1-1.84,18.21,8,8,0,0,1,3.89,5,5.78,5.78,0,0,1-1.94,5.83c-2,1.51-4.86,1.29-7.1.18a8.08,8.08,0,0,1-4.26-4.65,5.46,5.46,0,0,1,1.67-5.86,7.66,7.66,0,0,1,1.21-14.66,10.87,10.87,0,0,1-5.33-7.15A7.44,7.44,0,0,1,184,180c-2-3-.21-7.38,2.82-9.38A10.94,10.94,0,0,1,199.38,171.19Z" transform="translate(-168.44 -110.58)"/><path class="cls-6" d="M266.76,174.85A20.54,20.54,0,0,1,270,175a25.31,25.31,0,0,1,3,.48,22.59,22.59,0,0,1,5.75,2.06,15.67,15.67,0,0,1,4.71,3.92,14.23,14.23,0,0,1,2.54,5.31.86.86,0,0,1-1.56.68l-.06-.1a11.71,11.71,0,0,0-3.1-3.76,11.5,11.5,0,0,0-4.19-2,17.46,17.46,0,0,0-4.68-.45,18.81,18.81,0,0,0-2.37.22,12.31,12.31,0,0,0-2.16.46,3.56,3.56,0,1,1-2.34-6.73,3.35,3.35,0,0,1,1-.2Z" transform="translate(-168.44 -110.58)"/><path class="cls-2" d="M219.19,308.74s4.75,19.63,33.05,19.63,32-19.07,32-19.07" transform="translate(-168.44 -110.58)"/></g></svg>